<?xml version="1.0" encoding="utf-8"?>
<!-- Generator: Adobe Illustrator 24.0.0, SVG Export Plug-In . SVG Version: 6.00 Build 0)  -->
<svg version="1.1" id="Capa_1" xmlns="http://www.w3.org/2000/svg" xmlns:xlink="http://www.w3.org/1999/xlink" x="0px" y="0px"
	 viewBox="0 0 559.12 512" style="enable-background:new 0 0 559.12 512;" xml:space="preserve">
<style type="text/css">
	.st0{fill:#FFFFFF;}
</style>
	<g>
	<path d="M100.55,481.72c-14.92,0-27.63-10-30.91-24.31L13.7,213.77c-2.11-9.18,0.07-18.7,5.97-26.11
		c6.05-7.6,15.14-11.95,24.95-11.95h99.67l56.97-130.44c3.98-9.11,12.97-15,22.92-15c3.45,0,6.82,0.7,10,2.09
		c12.63,5.52,18.42,20.28,12.9,32.92l-48.23,110.43h160.13L310.75,65.29c-2.67-6.12-2.8-12.91-0.36-19.13s7.15-11.11,13.27-13.79
		c3.18-1.39,6.54-2.09,10-2.09c9.94,0,18.94,5.89,22.92,15l56.96,130.44h99.67c9.81,0,18.9,4.36,24.95,11.95
		c5.9,7.41,8.07,16.92,5.97,26.11L488.19,457.4c-3.29,14.32-16,24.31-30.91,24.31H100.55z M368.91,276.72c-2.76,0-5,2.24-5,5v110
		c0,2.76,2.24,5,5,5s5-2.24,5-5v-110C373.91,278.96,371.67,276.72,368.91,276.72z M278.91,276.72c-2.76,0-5,2.24-5,5v110
		c0,2.76,2.24,5,5,5s5-2.24,5-5v-110C283.91,278.96,281.67,276.72,278.91,276.72z M188.91,276.72c-2.76,0-5,2.24-5,5v110
		c0,2.76,2.24,5,5,5s5-2.24,5-5v-110C193.91,278.96,191.67,276.72,188.91,276.72z M399.58,218.72c0.8,1.83,2.6,3,4.59,3
		c0.68,0,1.35-0.14,1.99-0.42c1.65-0.72,2.38-2.04,2.66-2.76c0.28-0.72,0.65-2.17-0.07-3.83l-8.65-19.8h-10.91L399.58,218.72z
		 M149.08,214.72c-0.72,1.65-0.36,3.11-0.07,3.83s1,2.04,2.65,2.76c0.64,0.28,1.31,0.42,1.99,0.42c1.99,0,3.79-1.18,4.59-3
		l10.4-23.81h-10.91L149.08,214.72z"/>
		<path class="st0" d="M224.17,40.28c2,0,4.04,0.4,6,1.26c7.59,3.32,11.06,12.16,7.74,19.75l-54.34,124.43h190.69L319.92,61.29
		c-3.32-7.59,0.15-16.43,7.74-19.75c1.95-0.85,3.99-1.26,6-1.26c5.78,0,11.29,3.36,13.75,9l59.58,136.43h106.22
		c13.89,0,24.21,12.58,21.17,25.82l-55.94,243.63c-2.22,9.67-11.02,16.55-21.17,16.55H100.55c-10.15,0-18.95-6.88-21.17-16.55
		L23.45,211.54c-3.04-13.24,7.27-25.82,21.17-25.82h106.22l-10.92,25c-3.32,7.59,0.15,16.43,7.74,19.75c1.95,0.85,3.99,1.26,6,1.26
		c5.78,0,11.29-3.36,13.75-9l16.51-37.81h-32.74l59.23-135.63C212.88,43.65,218.39,40.28,224.17,40.28 M404.17,231.72
		c2,0,4.04-0.4,5.99-1.26c7.59-3.32,11.06-12.16,7.74-19.75l-11.27-25.8H373.9l16.51,37.81
		C392.88,228.36,398.39,231.72,404.17,231.72 M368.91,406.72c8.28,0,15-6.72,15-15v-110c0-8.28-6.72-15-15-15s-15,6.72-15,15v110
		C353.91,400,360.63,406.72,368.91,406.72 M278.91,406.72c8.28,0,15-6.72,15-15v-110c0-8.28-6.72-15-15-15s-15,6.72-15,15v110
		C263.91,400,270.63,406.72,278.91,406.72 M188.91,406.72c8.28,0,15-6.72,15-15v-110c0-8.28-6.72-15-15-15s-15,6.72-15,15v110
		C173.91,400,180.63,406.72,188.91,406.72 M151.18,184.91l-0.35,0.81h0L151.18,184.91 M224.17,20.28
		C224.17,20.28,224.17,20.28,224.17,20.28c-13.92,0-26.52,8.24-32.08,21l-54.34,124.43H44.61c-12.87,0-24.81,5.73-32.77,15.72
		c-7.81,9.8-10.68,22.41-7.89,34.57l55.94,243.63c2.1,9.14,7.35,17.37,14.78,23.18c7.33,5.73,16.52,8.89,25.88,8.89h356.73
		c9.35,0,18.54-3.16,25.88-8.89c7.44-5.81,12.69-14.05,14.78-23.18l55.93-243.63c2.79-12.17-0.08-24.77-7.89-34.57
		c-7.96-9.99-19.9-15.72-32.77-15.72h-93.13L365.74,41.28c-5.57-12.75-18.16-21-32.08-21c-4.84,0-9.55,0.99-14,2.93
		c-8.56,3.74-15.16,10.59-18.58,19.3c-3.41,8.7-3.23,18.22,0.51,26.78l42.11,96.42H214.13l42.11-96.42
		c7.72-17.69-0.38-38.36-18.07-46.08C233.72,21.27,229.01,20.28,224.17,20.28L224.17,20.28z"/>
</g>
</svg>
